<?xml version="1.0" encoding="utf-8"?>
<!-- Generator: Adobe Illustrator 22.1.0, SVG Export Plug-In . SVG Version: 6.00 Build 0)  -->
<svg version="1.1" id="Layer_1" xmlns="http://www.w3.org/2000/svg" xmlns:xlink="http://www.w3.org/1999/xlink" x="0px" y="0px"
	 viewBox="0 0 1000 700" style="enable-background:new 0 0 1000 700;" xml:space="preserve">
<style type="text/css">
	.st0{fill:#494368;}
	.st1{fill:#FF269E;}
</style>
<path class="st0" d="M258.2,455.6c4,0,7.3,1.4,10.1,4.2c2.8,2.8,4.2,6.2,4.2,10.1v49.6h-50.7c-4,0-7.3-1.4-10.1-4.2
	c-2.8-2.8-4.2-6.2-4.2-10.1v-23.6h53.1v-11.7c0-0.7-0.2-1.2-0.7-1.7s-1-0.7-1.7-0.7h-50.7v-11.9L258.2,455.6L258.2,455.6z
	 M260.6,507.6v-14.1h-41.2v11.7c0,0.7,0.2,1.2,0.7,1.7s1,0.7,1.7,0.7L260.6,507.6L260.6,507.6z M375.3,455.6H388l-24,63.9h-9.7
	L332.8,472l-20.3,47.5l-0.2-0.1l0.1,0.1h-9.6l-25.1-63.9h12.6l17.3,42.4l18.4-42.4h13.6l19.5,42.4L375.3,455.6z M442.5,455.6
	c4,0,7.3,1.4,10.1,4.2c2.8,2.8,4.2,6.2,4.2,10.1v23.6h-53.1v11.7c0,0.7,0.2,1.2,0.7,1.7s1,0.7,1.7,0.7h50.7v11.9h-50.7
	c-4,0-7.3-1.4-10.1-4.2c-2.8-2.8-4.2-6.2-4.2-10.1v-35.3c0-4,1.4-7.3,4.2-10.1c2.8-2.8,6.2-4.2,10.1-4.2L442.5,455.6L442.5,455.6z
	 M403.7,481.6h41.2v-11.7c0-0.7-0.2-1.2-0.7-1.7s-1-0.7-1.7-0.7h-36.4c-0.7,0-1.2,0.2-1.7,0.7s-0.7,1-0.7,1.7V481.6L403.7,481.6z
	 M532.7,470v2.4h-11.9V470c0-0.7-0.2-1.2-0.7-1.7s-1-0.7-1.7-0.7H482c-0.7,0-1.2,0.2-1.7,0.7s-0.7,1-0.7,1.7v9.3
	c0,0.7,0.2,1.2,0.7,1.7s1,0.7,1.7,0.7h36.4c4,0,7.3,1.4,10.1,4.2c2.8,2.8,4.2,6.2,4.2,10.1v9.3c0,4-1.4,7.3-4.2,10.1
	c-2.8,2.8-6.2,4.2-10.1,4.2H482c-4,0-7.3-1.4-10.1-4.2c-2.8-2.8-4.2-6.2-4.2-10.1v-2.4h11.9v2.4c0,0.7,0.2,1.2,0.7,1.7
	s1,0.7,1.7,0.7h36.4c0.7,0,1.2-0.2,1.7-0.7s0.7-1,0.7-1.7V496c0-0.7-0.2-1.2-0.7-1.7s-1-0.7-1.7-0.7H482c-4,0-7.3-1.4-10.1-4.2
	c-2.8-2.8-4.2-6.2-4.2-10.1V470c0-4,1.4-7.3,4.2-10.1c2.8-2.8,6.2-4.2,10.1-4.2h36.4c4,0,7.3,1.4,10.1,4.2
	C531.3,462.6,532.7,466,532.7,470z M557.9,455.6h36.4c4,0,7.3,1.4,10.1,4.2c2.8,2.8,4.2,6.2,4.2,10.1v35.3c0,4-1.4,7.3-4.2,10.1
	c-2.8,2.8-6.2,4.2-10.1,4.2h-36.4c-4,0-7.3-1.4-10.1-4.2c-2.8-2.8-4.2-6.2-4.2-10.1v-35.3c0-4,1.4-7.3,4.2-10.1
	C550.6,457,554,455.6,557.9,455.6L557.9,455.6z M594.3,467.5h-36.4c-0.7,0-1.2,0.2-1.7,0.7s-0.7,1-0.7,1.7v35.3
	c0,0.7,0.2,1.2,0.7,1.7s1,0.7,1.7,0.7h36.4c0.7,0,1.2-0.2,1.7-0.7s0.7-1,0.7-1.7v-35.3c0-0.7-0.2-1.2-0.7-1.7
	C595.5,467.8,595,467.5,594.3,467.5z M701.8,455.6c4,0,7.3,1.4,10.1,4.2c2.8,2.8,4.2,6.2,4.2,10.1v49.6h-11.8v-49.6
	c0-0.7-0.2-1.2-0.7-1.7s-1.1-0.7-1.8-0.7h-25.2c-0.7,0-1.2,0.2-1.7,0.7s-0.7,1-0.7,1.7v49.6h-11.9v-49.6c0-0.7-0.2-1.2-0.7-1.7
	s-1-0.7-1.7-0.7h-25.3c-0.7,0-1.2,0.2-1.7,0.7s-0.7,1-0.7,1.7v49.6h-11.9v-63.9H701.8z M778.3,455.6c4,0,7.3,1.4,10.1,4.2
	c2.8,2.8,4.2,6.2,4.2,10.1v23.6h-53.1v11.7c0,0.7,0.2,1.2,0.7,1.7s1,0.7,1.7,0.7h50.7v11.9h-50.7c-4,0-7.3-1.4-10.1-4.2
	c-2.8-2.8-4.2-6.2-4.2-10.1v-35.3c0-4,1.4-7.3,4.2-10.1c2.8-2.8,6.2-4.2,10.1-4.2L778.3,455.6L778.3,455.6z M739.5,481.6h41.2v-11.7
	c0-0.7-0.2-1.2-0.7-1.7s-1-0.7-1.7-0.7h-36.4c-0.7,0-1.2,0.2-1.7,0.7s-0.7,1-0.7,1.7L739.5,481.6L739.5,481.6z"/>
<path class="st1" d="M792.5,223.5l-150-137.6l-21.1,23l125,114.6H253.7l125-114.7l-21.1-23l-150,137.7h-0.1v90.7
	c0,41,39.5,74.4,88,74.4H388c48.5,0,88-33.4,88-74.4v-59.6h48v59.6c0,41,39.5,74.4,88,74.4h92.5c48.5,0,88-33.4,88-74.4V223.5z"/>
<g>
	<path class="st1" d="M283.6,598.4c0.7-1,1.8-1.6,3-1.6c1.4,0.1,2.6,0.5,3.7,1.4c4,2.7,8.8,4.2,13.7,4.1c4.1,0,7.3-1.7,7.3-5.2
		c0-9-29.9-4.1-29.9-24.2c0-10.8,8.9-16.9,20.3-16.9c6.5-0.1,13,1.7,18.5,5.2c1.2,0.9,1.8,2.2,1.8,3.7c0,0.9-0.2,1.8-0.7,2.5l-1.4,2
		c-0.7,1.2-2,2-3.4,2c-1.1-0.1-2.1-0.4-3.1-0.9c-3.4-1.7-7.1-2.6-10.9-2.6c-4.3,0-6.9,2.3-6.9,4.8c0,9.2,29.9,4.2,29.9,23.7
		c0,10.9-8.9,17.7-22.4,17.7c-7.6,0.2-15-2.5-20.7-7.6c-0.9-0.8-1.4-1.9-1.4-3.1c0-0.9,0.3-1.9,0.9-2.6L283.6,598.4z"/>
	<path class="st1" d="M369.2,604.2c0.4,0.6,0.6,1.4,0.6,2.1c0.1,1.6-0.7,3.1-2.1,3.9c-4.2,2.5-9,3.8-13.9,3.7
		c-12.5,0-17.2-8.1-17.2-22.3v-45.1c0-2.5,2.1-4.6,4.6-4.6h5c2.5,0,4.6,2.1,4.6,4.6v10.8h13.3c2.5,0,4.6,2.1,4.6,4.6v4.2
		c0,2.5-2.1,4.6-4.6,4.6h-13.3v20.2c0,6,2,10,6.6,10c1.3,0,2.6-0.2,3.9-0.6c0.9-0.4,1.8-0.6,2.8-0.6c1.7,0,3.2,1,3.8,2.5
		L369.2,604.2z"/>
	<path class="st1" d="M377.8,596.5c0-12.2,9-18,20.2-18c4.9,0,9.8,1.6,12.5,3.6v-1.7c0-8.1-2.6-12.5-10.3-12.5
		c-3.2-0.1-6.4,0.4-9.5,1.5c-0.7,0.2-1.5,0.4-2.2,0.4c-1.8,0-3.4-1-4.2-2.6l-0.7-1.5c-0.3-0.6-0.5-1.3-0.5-2
		c0.1-1.7,1.1-3.2,2.6-3.9c5-2.4,10.5-3.6,16-3.7c16.4,0,22.1,8.4,22.1,23v29.1c0,2.5-2.1,4.6-4.6,4.6H416c-2.5,0-4.6-2.1-4.6-4.6
		v-1.8c-3,4.2-8.9,7.1-16.4,7.1C385.1,613.5,377.8,607.2,377.8,596.5z M410.5,590.8c-2.9-1.9-6.3-2.9-9.7-2.7
		c-4.7,0-8.9,2.2-8.9,6.9c0,4.2,3.4,6.5,7.9,6.5c5.9,0,9-2.6,10.7-5V590.8z"/>
	<path class="st1" d="M469.7,604.2c0.4,0.6,0.6,1.4,0.6,2.1c0.1,1.6-0.7,3.1-2.1,3.9c-4.2,2.5-9,3.8-13.9,3.7
		c-12.5,0-17.2-8.1-17.2-22.3v-45.1c0-2.5,2.1-4.6,4.6-4.6h5c2.5,0,4.6,2.1,4.6,4.6v10.8h13.3c2.5,0,4.6,2.1,4.6,4.6v4.2
		c0,2.5-2.1,4.6-4.6,4.6h-13.3v20.2c0,6,2,10,6.6,10c1.3,0,2.6-0.2,3.9-0.6c0.9-0.4,1.8-0.6,2.8-0.6c1.7,0,3.2,1,3.8,2.5
		L469.7,604.2z"/>
	<path class="st1" d="M478.3,596.5c0-12.2,9-18,20.2-18c4.9,0,9.8,1.6,12.5,3.6v-1.7c0-8.1-2.6-12.5-10.3-12.5
		c-3.2-0.1-6.4,0.4-9.5,1.5c-0.7,0.2-1.5,0.4-2.2,0.4c-1.8,0-3.4-1-4.2-2.6l-0.7-1.5c-0.3-0.6-0.5-1.3-0.5-2
		c0.1-1.7,1.1-3.2,2.6-3.9c5-2.4,10.5-3.6,16-3.7c16.4,0,22.1,8.4,22.1,23v29.1c0,2.5-2.1,4.6-4.6,4.6h-3.2c-2.5,0-4.6-2.1-4.6-4.6
		v-1.8c-3,4.2-8.9,7.1-16.4,7.1C485.6,613.5,478.3,607.2,478.3,596.5z M511,590.8c-2.9-1.9-6.3-2.9-9.7-2.7c-4.7,0-8.9,2.2-8.9,6.9
		c0,4.2,3.4,6.5,7.9,6.5c5.9,0,9-2.6,10.7-5V590.8z"/>
	<path class="st1" d="M553,563.5c3.9-4.4,10.5-7.1,17.3-7.1c8.5,0,14.1,3.8,16.1,8.9c3.9-5.2,10.1-8.9,18.7-8.9
		c10.1,0,17.7,5,17.7,20.2v31.6c0,2.5-2.1,4.6-4.6,4.6h-5c-2.5,0-4.6-2.1-4.6-4.6v-28c0-6.9-2.8-10.6-9.5-10.6
		c-5.3,0-9.5,2.6-11.4,6.4c0,0.9,0.1,2.8,0.1,4.1v28c0,2.5-2.1,4.6-4.6,4.6h-5c-2.5,0-4.6-2.1-4.6-4.6v-28.8c0-5.8-3.2-9.6-9.2-9.6
		c-4.6-0.1-9,2.1-11.6,5.9v32.6c0,2.5-2.1,4.6-4.6,4.6h-5c-2.5,0-4.6-2.1-4.6-4.6v-46.3c0-2.5,2.1-4.6,4.6-4.6h5
		c2.5,0,4.6,2.1,4.6,4.6v1.6H553z"/>
	<path class="st1" d="M654.8,537.4c0,5.7-4.1,8.9-8.1,8.9c-4.8,0-8.9-3.2-8.9-8.9c0-5,4.1-8.2,8.9-8.2
		C651.2,529.3,654.8,532.9,654.8,537.4C654.8,537.4,654.8,537.4,654.8,537.4z M648.9,557.4c2.5,0,4.6,2.1,4.6,4.6v46.2
		c0,2.5-2.1,4.6-4.6,4.6h-5c-2.5,0-4.6-2.1-4.6-4.6v-46.3c0-2.5,2.1-4.6,4.6-4.6L648.9,557.4L648.9,557.4z"/>
	<path class="st1" d="M708.2,571.5c-3-1.5-6.4-2.3-9.8-2.2c-8.4-0.1-15.3,6.7-15.4,15.2c0,0.2,0,0.4,0,0.5c0,9.8,7.6,15.9,16,15.9
		c3.8,0.1,7.6-1,10.7-3.2c0.9-0.6,1.9-0.9,3-1c1.5,0,2.9,0.6,3.8,1.8l2.1,2.6c0.6,0.7,0.9,1.6,0.9,2.5c0.1,1.5-0.6,2.9-1.7,3.9
		c-6.6,5.3-12.5,6.5-19.4,6.5c-18.3,0-30.4-11.6-30.4-29c0-16.1,11.8-29,28.7-29c7.4,0,12.8,1.2,18.2,4.2c1.4,0.9,2.3,2.4,2.2,4.1
		c0,0.7-0.1,1.4-0.5,2l-1.8,3.2c-0.8,1.5-2.4,2.5-4.2,2.6C709.8,572.1,709,571.9,708.2,571.5z"/>
</g>
</svg>
