<?xml version="1.0" encoding="utf-8"?>
<!-- Generator: Adobe Illustrator 22.1.0, SVG Export Plug-In . SVG Version: 6.00 Build 0)  -->
<svg version="1.1" id="Layer_1" xmlns="http://www.w3.org/2000/svg" xmlns:xlink="http://www.w3.org/1999/xlink" x="0px" y="0px"
	 viewBox="0 0 1000 700" style="enable-background:new 0 0 1000 700;" xml:space="preserve">
<style type="text/css">
	.st0{fill:#494368;}
	.st1{fill:#FF269E;}
</style>
<path class="st0" d="M213.5,475.2c4.7,0,8.6,1.7,12,5c3.3,3.3,5,7.3,5,12v58.8h-60.1c-4.7,0-8.6-1.7-12-5s-5-7.3-5-12v-28h62.9
	v-13.9c0-0.8-0.2-1.4-0.8-2c-0.6-0.6-1.2-0.8-2-0.8h-60.1v-14.1L213.5,475.2L213.5,475.2z M216.3,536.8v-16.7h-48.8v13.9
	c0,0.8,0.2,1.4,0.8,2s1.2,0.8,2,0.8L216.3,536.8L216.3,536.8z M352.2,475.2h15l-28.4,75.7h-11.5l-25.5-56.3l-24.1,56.3l-0.2-0.1
	l0.1,0.1h-11.4l-29.7-75.7h14.9l20.5,50.2l21.8-50.2h16.1l23.1,50.2L352.2,475.2z M431.9,475.2c4.7,0,8.6,1.7,12,5
	c3.3,3.3,5,7.3,5,12v28h-62.9v13.9c0,0.8,0.2,1.4,0.8,2c0.6,0.6,1.2,0.8,2,0.8h60.1v14.1h-60.1c-4.7,0-8.6-1.7-12-5s-5-7.3-5-12
	v-41.8c0-4.7,1.7-8.6,5-12c3.3-3.3,7.3-5,12-5L431.9,475.2L431.9,475.2z M385.9,506h48.8v-13.9c0-0.8-0.2-1.4-0.8-2
	c-0.6-0.6-1.2-0.8-2-0.8h-43.1c-0.8,0-1.4,0.2-2,0.8c-0.6,0.6-0.8,1.2-0.8,2V506L385.9,506z M538.7,492.2v2.8h-14.1v-2.8
	c0-0.8-0.2-1.4-0.8-2c-0.6-0.6-1.2-0.8-2-0.8h-43.1c-0.8,0-1.4,0.2-2,0.8c-0.6,0.6-0.8,1.2-0.8,2v11c0,0.8,0.2,1.4,0.8,2
	c0.6,0.6,1.2,0.8,2,0.8h43.1c4.7,0,8.6,1.7,12,5c3.3,3.3,5,7.3,5,12v11c0,4.7-1.7,8.6-5,12c-3.3,3.3-7.3,5-12,5h-43.1
	c-4.7,0-8.6-1.7-12-5c-3.3-3.3-5-7.3-5-12v-2.8h14.1v2.8c0,0.8,0.2,1.4,0.8,2c0.6,0.6,1.2,0.8,2,0.8h43.1c0.8,0,1.4-0.2,2-0.8
	c0.6-0.6,0.8-1.2,0.8-2v-11c0-0.8-0.2-1.4-0.8-2s-1.2-0.8-2-0.8h-43.1c-4.7,0-8.6-1.7-12-5c-3.3-3.3-5-7.3-5-12v-11
	c0-4.7,1.7-8.6,5-12c3.3-3.3,7.3-5,12-5h43.1c4.7,0,8.6,1.7,12,5C537.1,483.5,538.7,487.5,538.7,492.2z M568.6,475.2h43.1
	c4.7,0,8.6,1.7,12,5c3.3,3.3,5,7.3,5,12v41.8c0,4.7-1.7,8.6-5,12s-7.3,5-12,5h-43.1c-4.7,0-8.6-1.7-12-5c-3.3-3.3-5-7.3-5-12v-41.8
	c0-4.7,1.7-8.6,5-12C559.9,476.8,564,475.2,568.6,475.2L568.6,475.2z M611.7,489.3h-43.1c-0.8,0-1.4,0.2-2,0.8
	c-0.6,0.6-0.8,1.2-0.8,2v41.8c0,0.8,0.2,1.4,0.8,2c0.6,0.6,1.2,0.8,2,0.8h43.1c0.8,0,1.4-0.2,2-0.8s0.8-1.2,0.8-2v-41.8
	c0-0.8-0.2-1.4-0.8-2C613.1,489.6,612.6,489.3,611.7,489.3z M739.1,475.2c4.7,0,8.6,1.7,12,5c3.3,3.3,5,7.3,5,12v58.8h-14v-58.8
	c0-0.8-0.2-1.4-0.8-2c-0.6-0.6-1.3-0.8-2.1-0.8h-29.9c-0.8,0-1.4,0.2-2,0.8c-0.6,0.6-0.8,1.2-0.8,2v58.8h-14.1v-58.8
	c0-0.8-0.2-1.4-0.8-2c-0.6-0.6-1.2-0.8-2-0.8h-30c-0.8,0-1.4,0.2-2,0.8c-0.6,0.6-0.8,1.2-0.8,2v58.8h-14.1v-75.7H739.1z
	 M829.7,475.2c4.7,0,8.6,1.7,12,5c3.3,3.3,5,7.3,5,12v28h-62.9v13.9c0,0.8,0.2,1.4,0.8,2c0.6,0.6,1.2,0.8,2,0.8h60.1v14.1h-60.1
	c-4.7,0-8.6-1.7-12-5c-3.3-3.3-5-7.3-5-12v-41.8c0-4.7,1.7-8.6,5-12c3.3-3.3,7.3-5,12-5L829.7,475.2L829.7,475.2z M783.8,506h48.8
	v-13.9c0-0.8-0.2-1.4-0.8-2c-0.6-0.6-1.2-0.8-2-0.8h-43.1c-0.8,0-1.4,0.2-2,0.8c-0.6,0.6-0.8,1.2-0.8,2L783.8,506L783.8,506z"/>
<path class="st1" d="M846.6,200.2l-177.7-163l-25,27.3L792,200.2H208.1L356.3,64.3l-25-27.3L153.5,200.2h-0.1v107.5
	c0,48.6,46.8,88.2,104.3,88.2h109.6c57.5,0,104.3-39.6,104.3-88.2V237h56.9v70.6c0,48.6,46.8,88.2,104.3,88.2h109.6
	c57.5,0,104.3-39.6,104.3-88.2V200.2z"/>
<g>
	<path class="st1" d="M243.6,644.4c0.8-1.2,2.1-1.9,3.6-1.9c1.6,0.1,3.1,0.7,4.4,1.7c4.8,3.2,10.5,4.9,16.2,4.9c4.9,0,8.6-2,8.6-6.2
		c0-10.7-35.4-4.9-35.4-28.7c0-12.8,10.5-20,24.1-20c7.8-0.2,15.4,2,21.9,6.2c1.4,1,2.2,2.7,2.1,4.4c0,1-0.3,2.1-0.8,3l-1.7,2.4
		c-0.8,1.4-2.4,2.3-4,2.4c-1.3-0.1-2.5-0.5-3.7-1.1c-4-2.1-8.4-3.1-12.9-3.1c-5.1,0-8.2,2.7-8.2,5.7c0,10.9,35.4,5,35.4,28.1
		c0,12.9-10.5,21-26.5,21c-9,0.3-17.8-3-24.5-9c-1.1-0.9-1.7-2.3-1.7-3.7c0-1.1,0.3-2.2,1.1-3.1L243.6,644.4z"/>
	<path class="st1" d="M345,651.3c0.5,0.7,0.7,1.6,0.7,2.5c0.1,1.9-0.9,3.7-2.5,4.6c-5,3-10.7,4.5-16.5,4.4
		c-14.8,0-20.4-9.6-20.4-26.4v-53.4c0-3,2.5-5.4,5.5-5.5h5.9c3,0,5.4,2.5,5.5,5.5v12.8H339c3,0,5.4,2.5,5.5,5.5v5
		c0,3-2.5,5.4-5.5,5.5h-15.8v23.9c0,7.1,2.4,11.8,7.8,11.8c1.6,0,3.1-0.2,4.6-0.7c1.1-0.4,2.2-0.7,3.3-0.7c2,0,3.7,1.2,4.5,3
		L345,651.3z"/>
	<path class="st1" d="M355.2,642.1c0-14.5,10.7-21.3,23.9-21.3c5.8,0,11.6,1.9,14.8,4.3v-2c0-9.6-3.1-14.8-12.2-14.8
		c-3.8-0.1-7.6,0.5-11.3,1.8c-0.8,0.3-1.7,0.4-2.6,0.5c-2.1,0-4.1-1.2-5-3.1l-0.8-1.8c-0.3-0.7-0.5-1.6-0.6-2.4
		c0.1-2,1.3-3.8,3.1-4.6c5.9-2.8,12.4-4.3,19-4.4c19.4,0,26.2,10,26.2,27.3V656c0,3-2.5,5.4-5.5,5.5h-3.8c-3,0-5.4-2.5-5.5-5.5v-2.1
		c-3.6,5-10.5,8.4-19.4,8.4C363.8,662.3,355.2,654.8,355.2,642.1z M393.9,635.4c-3.4-2.3-7.4-3.4-11.5-3.2c-5.6,0-10.5,2.6-10.5,8.2
		c0,5,4,7.7,9.4,7.7c7,0,10.7-3.1,12.7-5.9V635.4z"/>
	<path class="st1" d="M464.1,651.3c0.5,0.7,0.7,1.6,0.7,2.5c0.1,1.9-0.9,3.7-2.5,4.6c-5,3-10.7,4.5-16.5,4.4
		c-14.8,0-20.4-9.6-20.4-26.4v-53.4c0-3,2.5-5.4,5.5-5.5h5.9c3,0,5.4,2.5,5.5,5.5v12.8H458c3,0,5.4,2.5,5.5,5.5v5
		c0,3-2.5,5.4-5.5,5.5h-15.8v23.9c0,7.1,2.4,11.8,7.8,11.8c1.6,0,3.1-0.2,4.6-0.7c1.1-0.4,2.2-0.7,3.3-0.7c2,0,3.7,1.2,4.5,3
		L464.1,651.3z"/>
	<path class="st1" d="M474.3,642.1c0-14.5,10.7-21.3,23.9-21.3c5.8,0,11.6,1.9,14.8,4.3v-2c0-9.6-3.1-14.8-12.2-14.8
		c-3.8-0.1-7.6,0.5-11.3,1.8c-0.8,0.3-1.7,0.4-2.6,0.5c-2.1,0-4.1-1.2-5-3.1l-0.8-1.8c-0.3-0.7-0.5-1.6-0.6-2.4
		c0.1-2,1.3-3.8,3.1-4.6c5.9-2.8,12.4-4.3,19-4.4c19.4,0,26.2,10,26.2,27.3V656c0,3-2.5,5.4-5.5,5.5h-3.8c-3,0-5.4-2.5-5.5-5.5v-2.1
		c-3.6,5-10.5,8.4-19.4,8.4C482.9,662.3,474.3,654.8,474.3,642.1z M513,635.4c-3.4-2.3-7.4-3.4-11.5-3.2c-5.6,0-10.5,2.6-10.5,8.2
		c0,5,4,7.7,9.4,7.7c7,0,10.7-3.1,12.7-5.9V635.4z"/>
	<path class="st1" d="M562.8,603c4.6-5.2,12.4-8.4,20.5-8.4c10.1,0,16.7,4.5,19.1,10.5c4.6-6.2,12-10.5,22.2-10.5
		c12,0,21,5.9,21,23.9V656c0,3-2.5,5.4-5.5,5.5h-5.9c-3,0-5.4-2.5-5.5-5.5v-33.2c0-8.2-3.3-12.6-11.3-12.6c-6.3,0-11.3,3.1-13.5,7.6
		c0,1.1,0.1,3.3,0.1,4.9v33.2c0,3-2.5,5.4-5.5,5.5h-5.9c-3,0-5.4-2.5-5.5-5.5v-34.1c0-6.9-3.8-11.4-10.9-11.4
		c-5.5-0.2-10.7,2.5-13.7,7V656c0,3-2.5,5.4-5.5,5.5h-5.9c-3,0-5.4-2.5-5.5-5.5v-54.9c0-3,2.5-5.4,5.5-5.5h5.9c3,0,5.4,2.5,5.5,5.5
		v1.9H562.8z"/>
	<path class="st1" d="M683.4,572.1c0,6.8-4.9,10.5-9.6,10.5c-5.7,0-10.5-3.8-10.5-10.5c0-5.9,4.9-9.7,10.5-9.7
		C679.1,562.4,683.4,566.8,683.4,572.1C683.4,572.1,683.4,572.1,683.4,572.1z M676.4,595.8c3,0,5.4,2.5,5.5,5.5V656
		c0,3-2.5,5.4-5.5,5.5h-5.9c-3,0-5.4-2.5-5.5-5.5v-54.9c0-3,2.5-5.4,5.5-5.5h5.9V595.8z"/>
	<path class="st1" d="M746.7,612.5c-3.6-1.8-7.6-2.7-11.6-2.6c-10-0.1-18.2,8-18.3,18c0,0.2,0,0.4,0,0.6c0,11.6,9,18.8,19,18.8
		c4.5,0.1,9-1.2,12.7-3.8c1.1-0.7,2.3-1.1,3.6-1.2c1.7,0,3.4,0.8,4.5,2.1l2.5,3.1c0.7,0.8,1.1,1.9,1.1,3c0.1,1.8-0.7,3.5-2,4.6
		c-7.8,6.3-14.8,7.7-23,7.7c-21.7,0-36-13.7-36-34.4c0-19.1,14-34.4,34-34.4c8.8,0,15.2,1.4,21.6,5c1.7,1,2.7,2.9,2.6,4.9
		c0,0.8-0.2,1.7-0.6,2.4l-2.1,3.8c-1,1.8-2.9,3-5,3.1C748.5,613.2,747.6,612.9,746.7,612.5z"/>
</g>
</svg>
